<?xml version="1.0" encoding="us-ascii" standalone="no"?><svg xmlns="http://www.w3.org/2000/svg" xmlns:xlink="http://www.w3.org/1999/xlink" contentStyleType="text/css" height="358px" preserveAspectRatio="none" style="width:870px;height:358px;" version="1.1" viewBox="0 0 870 358" width="870px" zoomAndPan="magnify"><defs/><g><!--cluster Virtual Machines--><g id="cluster_Virtual Machines"><path d="M13.5,193 L144.5,193 A3.75,3.75 0 0 1 147,195.5 L154,215.2969 L860.5,215.2969 A2.5,2.5 0 0 1 863,217.7969 L863,348.5 A2.5,2.5 0 0 1 860.5,351 L13.5,351 A2.5,2.5 0 0 1 11,348.5 L11,195.5 A2.5,2.5 0 0 1 13.5,193 " fill="#FFFFFF" style="stroke:#000000;stroke-width:1.0;"/><line style="stroke:#000000;stroke-width:1.0;" x1="11" x2="154" y1="215.2969" y2="215.2969"/><text fill="#000000" font-family="Verdana" font-size="14" font-weight="bold" lengthAdjust="spacing" textLength="130" x="15" y="207.9951">Virtual Machines</text></g><!--cluster Containers--><g id="cluster_Containers"><path d="M13.5,11 L100.5,11 A3.75,3.75 0 0 1 103,13.5 L110,33.2969 L688.5,33.2969 A2.5,2.5 0 0 1 691,35.7969 L691,166.5 A2.5,2.5 0 0 1 688.5,169 L13.5,169 A2.5,2.5 0 0 1 11,166.5 L11,13.5 A2.5,2.5 0 0 1 13.5,11 " fill="#FFFFFF" style="stroke:#000000;stroke-width:1.0;"/><line style="stroke:#000000;stroke-width:1.0;" x1="11" x2="110" y1="33.2969" y2="33.2969"/><text fill="#000000" font-family="Verdana" font-size="14" font-weight="bold" lengthAdjust="spacing" textLength="86" x="15" y="25.9951">Containers</text></g><!--entity vmAppA--><g id="elem_vmAppA"><rect fill="#EEF4FF" height="36.2969" rx="2.5" ry="2.5" style="stroke:#4F8FFF;stroke-width:1.0;" width="60" x="27.5" y="228"/><text fill="#14213D" font-family="Verdana" font-size="14" lengthAdjust="spacing" textLength="40" x="37.5" y="250.9951">App A</text></g><!--entity vmOsA--><g id="elem_vmOsA"><rect fill="#EEF4FF" height="36.2969" rx="2.5" ry="2.5" style="stroke:#4F8FFF;stroke-width:1.0;" width="99" x="200" y="228"/><text fill="#14213D" font-family="Verdana" font-size="14" lengthAdjust="spacing" textLength="79" x="210" y="250.9951">Guest OS A</text></g><!--entity vmAppB--><g id="elem_vmAppB"><rect fill="#EEF4FF" height="36.2969" rx="2.5" ry="2.5" style="stroke:#4F8FFF;stroke-width:1.0;" width="61" x="27" y="299"/><text fill="#14213D" font-family="Verdana" font-size="14" lengthAdjust="spacing" textLength="41" x="37" y="321.9951">App B</text></g><!--entity vmOsB--><g id="elem_vmOsB"><rect fill="#EEF4FF" height="36.2969" rx="2.5" ry="2.5" style="stroke:#4F8FFF;stroke-width:1.0;" width="100" x="199.5" y="299"/><text fill="#14213D" font-family="Verdana" font-size="14" lengthAdjust="spacing" textLength="80" x="209.5" y="321.9951">Guest OS B</text></g><!--entity hypervisor--><g id="elem_hypervisor"><rect fill="#EEF4FF" height="36.2969" rx="2.5" ry="2.5" style="stroke:#4F8FFF;stroke-width:1.0;" width="92" x="411" y="264"/><text fill="#14213D" font-family="Verdana" font-size="14" lengthAdjust="spacing" textLength="72" x="421" y="286.9951">Hypervisor</text></g><!--entity hostOs1--><g id="elem_hostOs1"><rect fill="#EEF4FF" height="36.2969" rx="2.5" ry="2.5" style="stroke:#4F8FFF;stroke-width:1.0;" width="76" x="581" y="264"/><text fill="#14213D" font-family="Verdana" font-size="14" lengthAdjust="spacing" textLength="56" x="591" y="286.9951">Host OS</text></g><!--entity infra1--><g id="elem_infra1"><rect fill="#EEF4FF" height="36.2969" rx="2.5" ry="2.5" style="stroke:#4F8FFF;stroke-width:1.0;" width="112" x="735" y="264"/><text fill="#14213D" font-family="Verdana" font-size="14" lengthAdjust="spacing" textLength="92" x="745" y="286.9951">Infrastructure</text></g><!--entity cAppA--><g id="elem_cAppA"><rect fill="#EEF4FF" height="36.2969" rx="2.5" ry="2.5" style="stroke:#4F8FFF;stroke-width:1.0;" width="60" x="27.5" y="46"/><text fill="#14213D" font-family="Verdana" font-size="14" lengthAdjust="spacing" textLength="40" x="37.5" y="68.9951">App A</text></g><!--entity cAppB--><g id="elem_cAppB"><rect fill="#EEF4FF" height="36.2969" rx="2.5" ry="2.5" style="stroke:#4F8FFF;stroke-width:1.0;" width="61" x="27" y="117"/><text fill="#14213D" font-family="Verdana" font-size="14" lengthAdjust="spacing" textLength="41" x="37" y="139.9951">App B</text></g><!--entity engine--><g id="elem_engine"><rect fill="#EEF4FF" height="36.2969" rx="2.5" ry="2.5" style="stroke:#4F8FFF;stroke-width:1.0;" width="203" x="148" y="82"/><text fill="#14213D" font-family="Verdana" font-size="14" lengthAdjust="spacing" textLength="183" x="158" y="104.9951">Container Engine (Docker)</text></g><!--entity hostOs2--><g id="elem_hostOs2"><rect fill="#EEF4FF" height="36.2969" rx="2.5" ry="2.5" style="stroke:#4F8FFF;stroke-width:1.0;" width="76" x="419" y="82"/><text fill="#14213D" font-family="Verdana" font-size="14" lengthAdjust="spacing" textLength="56" x="429" y="104.9951">Host OS</text></g><!--entity infra2--><g id="elem_infra2"><rect fill="#EEF4FF" height="36.2969" rx="2.5" ry="2.5" style="stroke:#4F8FFF;stroke-width:1.0;" width="112" x="563" y="82"/><text fill="#14213D" font-family="Verdana" font-size="14" lengthAdjust="spacing" textLength="92" x="573" y="104.9951">Infrastructure</text></g><!--link vmAppA to vmOsA--><g id="link_vmAppA_vmOsA"><path d="M87.77,246 C117.65,246 158.53,246 193.97,246 " fill="none" id="vmAppA-to-vmOsA" style="stroke:#4F8FFF;stroke-width:1.0;"/><polygon fill="#4F8FFF" points="199.97,246,190.97,242,194.97,246,190.97,250,199.97,246" style="stroke:#4F8FFF;stroke-width:1.0;"/></g><!--link vmAppB to vmOsB--><g id="link_vmAppB_vmOsB"><path d="M88.19,317 C117.93,317 158.24,317 193.45,317 " fill="none" id="vmAppB-to-vmOsB" style="stroke:#4F8FFF;stroke-width:1.0;"/><polygon fill="#4F8FFF" points="199.45,317,190.45,313,194.45,317,190.45,321,199.45,317" style="stroke:#4F8FFF;stroke-width:1.0;"/></g><!--link vmOsA to hypervisor--><g id="link_vmOsA_hypervisor"><path d="M299.2,254.53 C333.03,260.46 371.8698,267.2658 404.8998,273.0458 " fill="none" id="vmOsA-to-hypervisor" style="stroke:#4F8FFF;stroke-width:1.0;"/><polygon fill="#4F8FFF" points="410.81,274.08,402.6342,268.5885,405.8848,273.2181,401.2552,276.4688,410.81,274.08" style="stroke:#4F8FFF;stroke-width:1.0;"/></g><!--link vmOsB to hypervisor--><g id="link_vmOsB_hypervisor"><path d="M299.72,308.62 C333.44,302.87 371.925,296.3165 404.775,290.7265 " fill="none" id="vmOsB-to-hypervisor" style="stroke:#4F8FFF;stroke-width:1.0;"/><polygon fill="#4F8FFF" points="410.69,289.72,401.1465,287.2865,405.7609,290.5588,402.4886,295.1731,410.69,289.72" style="stroke:#4F8FFF;stroke-width:1.0;"/></g><!--link hypervisor to hostOs1--><g id="link_hypervisor_hostOs1"><path d="M503.42,282 C527.9,282 551.74,282 574.82,282 " fill="none" id="hypervisor-to-hostOs1" style="stroke:#4F8FFF;stroke-width:1.0;"/><polygon fill="#4F8FFF" points="580.82,282,571.82,278,575.82,282,571.82,286,580.82,282" style="stroke:#4F8FFF;stroke-width:1.0;"/></g><!--link hostOs1 to infra1--><g id="link_hostOs1_infra1"><path d="M657.31,282 C679.98,282 703.35,282 728.7,282 " fill="none" id="hostOs1-to-infra1" style="stroke:#4F8FFF;stroke-width:1.0;"/><polygon fill="#4F8FFF" points="734.7,282,725.7,278,729.7,282,725.7,286,734.7,282" style="stroke:#4F8FFF;stroke-width:1.0;"/></g><!--link cAppA to engine--><g id="link_cAppA_engine"><path d="M87.77,69.55 C105.57,72.92 123.5148,76.3232 147.3748,80.8432 " fill="none" id="cAppA-to-engine" style="stroke:#4F8FFF;stroke-width:1.0;"/><polygon fill="#4F8FFF" points="153.27,81.96,145.1718,76.3547,148.3574,81.0294,143.6828,84.2149,153.27,81.96" style="stroke:#4F8FFF;stroke-width:1.0;"/></g><!--link cAppB to engine--><g id="link_cAppB_engine"><path d="M88.19,129.53 C105.3,126.38 121.9996,123.3086 144.8196,119.0986 " fill="none" id="cAppB-to-engine" style="stroke:#4F8FFF;stroke-width:1.0;"/><polygon fill="#4F8FFF" points="150.72,118.01,141.1437,115.7092,145.803,118.9171,142.5951,123.5764,150.72,118.01" style="stroke:#4F8FFF;stroke-width:1.0;"/></g><!--link engine to hostOs2--><g id="link_engine_hostOs2"><path d="M351.14,100 C375.35,100 393.71,100 412.85,100 " fill="none" id="engine-to-hostOs2" style="stroke:#4F8FFF;stroke-width:1.0;"/><polygon fill="#4F8FFF" points="418.85,100,409.85,96,413.85,100,409.85,104,418.85,100" style="stroke:#4F8FFF;stroke-width:1.0;"/></g><!--link hostOs2 to infra2--><g id="link_hostOs2_infra2"><path d="M495.11,100 C515.23,100 534.5,100 556.88,100 " fill="none" id="hostOs2-to-infra2" style="stroke:#4F8FFF;stroke-width:1.0;"/><polygon fill="#4F8FFF" points="562.88,100,553.88,96,557.88,100,553.88,104,562.88,100" style="stroke:#4F8FFF;stroke-width:1.0;"/></g><!--SRC=[ZL8xKuGm4Exv5IisMbY0LrWv0-UpSAxGiOzXWSn1mcp2dOvp_zqGcF0uNmriliTc-POJKsADq5HCo41lXMmOiHhU6DyMf5gPhLMb20mngIs5qanK6UQihSmBlfka4eMiBGtSFf0cAa9kc2mgXCy085rqFaNCLtdUCOeof05TvLUvG- -KD0CMhUBeCWiEazwCIEtdbWfp0qO1YQ8qa8dkUg5a43JsPbOWXA-2JCigU6Ay519rw0ORnmoJfe4a1APXLziwcRFtBMe3csSlsUZas9-E_lG7V-hz2yN3HuEq4rgHKvJ-k90frwVNs7gZexdWKUR4jA6McvRGwKG7HO7LzPy65vdQoujh_ndzn3CuTR2bFJgRo4c-fyR3oFj1XyepmsY7oQRMTldsnqJwRKVyU4NZ0lXn_huftCh2lk7iHl4jqhapeCF-2Zh-Nz1n5pIVvUpxyrdE7kwBHLonZokUnnK7Xoy0]--></g></svg>