<?xml version="1.0" encoding="us-ascii" standalone="no"?><svg xmlns="http://www.w3.org/2000/svg" xmlns:xlink="http://www.w3.org/1999/xlink" contentStyleType="text/css" height="415px" preserveAspectRatio="none" style="width:964px;height:415px;" version="1.1" viewBox="0 0 964 415" width="964px" zoomAndPan="magnify"><defs/><g><rect fill="#FFFFFF" height="86.3984" style="stroke:#4F8FFF;stroke-width:1.0;" width="10" x="719.5" y="171.6953"/><line style="stroke:#4F8FFF;stroke-width:1.0;" x1="48" x2="48" y1="82.2969" y2="334.3594"/><line style="stroke:#4F8FFF;stroke-width:1.0;" x1="279" x2="279" y1="82.2969" y2="334.3594"/><line style="stroke:#4F8FFF;stroke-width:1.0;" x1="520.5" x2="520.5" y1="82.2969" y2="334.3594"/><line style="stroke:#4F8FFF;stroke-width:1.0;" x1="724" x2="724" y1="82.2969" y2="334.3594"/><line style="stroke:#4F8FFF;stroke-width:1.0;" x1="907" x2="907" y1="82.2969" y2="334.3594"/><text fill="#000000" font-family="Verdana" font-size="14" lengthAdjust="spacing" textLength="71" x="10" y="78.9951">Developer</text><ellipse cx="48.5" cy="14" fill="#FFFFFF" rx="8" ry="8" style="stroke:#4F8FFF;stroke-width:1.0;"/><path d="M48.5,22 L48.5,49 M35.5,30 L61.5,30 M48.5,49 L35.5,64 M48.5,49 L61.5,64 " fill="none" style="stroke:#4F8FFF;stroke-width:1.0;"/><text fill="#000000" font-family="Verdana" font-size="14" lengthAdjust="spacing" textLength="71" x="10" y="346.3545">Developer</text><ellipse cx="48.5" cy="358.6563" fill="#FFFFFF" rx="8" ry="8" style="stroke:#4F8FFF;stroke-width:1.0;"/><path d="M48.5,366.6563 L48.5,393.6563 M35.5,374.6563 L61.5,374.6563 M48.5,393.6563 L35.5,408.6563 M48.5,393.6563 L61.5,408.6563 " fill="none" style="stroke:#4F8FFF;stroke-width:1.0;"/><rect fill="#FFFFFF" height="30.2969" rx="2.5" ry="2.5" style="stroke:#000000;stroke-width:1.0;" width="139" x="210" y="51"/><text fill="#000000" font-family="Verdana" font-size="14" lengthAdjust="spacing" textLength="125" x="217" y="70.9951">GitHub Repository</text><rect fill="#FFFFFF" height="30.2969" rx="2.5" ry="2.5" style="stroke:#000000;stroke-width:1.0;" width="139" x="210" y="333.3594"/><text fill="#000000" font-family="Verdana" font-size="14" lengthAdjust="spacing" textLength="125" x="217" y="353.3545">GitHub Repository</text><rect fill="#FFFFFF" height="46.5938" rx="2.5" ry="2.5" style="stroke:#000000;stroke-width:1.0;" width="116" x="462.5" y="34.7031"/><text fill="#000000" font-family="Verdana" font-size="14" lengthAdjust="spacing" textLength="102" x="469.5" y="54.6982">GitHub Actions</text><text fill="#000000" font-family="Verdana" font-size="14" lengthAdjust="spacing" textLength="62" x="489.5" y="70.9951">Workflow</text><rect fill="#FFFFFF" height="46.5938" rx="2.5" ry="2.5" style="stroke:#000000;stroke-width:1.0;" width="116" x="462.5" y="333.3594"/><text fill="#000000" font-family="Verdana" font-size="14" lengthAdjust="spacing" textLength="102" x="469.5" y="353.3545">GitHub Actions</text><text fill="#000000" font-family="Verdana" font-size="14" lengthAdjust="spacing" textLength="62" x="489.5" y="369.6514">Workflow</text><rect fill="#FFFFFF" height="30.2969" rx="2.5" ry="2.5" style="stroke:#000000;stroke-width:1.0;" width="65" x="692" y="51"/><text fill="#000000" font-family="Verdana" font-size="14" lengthAdjust="spacing" textLength="51" x="699" y="70.9951">Runner</text><rect fill="#FFFFFF" height="30.2969" rx="2.5" ry="2.5" style="stroke:#000000;stroke-width:1.0;" width="65" x="692" y="333.3594"/><text fill="#000000" font-family="Verdana" font-size="14" lengthAdjust="spacing" textLength="51" x="699" y="353.3545">Runner</text><rect fill="#FFFFFF" height="30.2969" rx="2.5" ry="2.5" style="stroke:#000000;stroke-width:1.0;" width="101" x="857" y="51"/><text fill="#000000" font-family="Verdana" font-size="14" lengthAdjust="spacing" textLength="87" x="864" y="70.9951">Pull Request</text><rect fill="#FFFFFF" height="30.2969" rx="2.5" ry="2.5" style="stroke:#000000;stroke-width:1.0;" width="101" x="857" y="333.3594"/><text fill="#000000" font-family="Verdana" font-size="14" lengthAdjust="spacing" textLength="87" x="864" y="353.3545">Pull Request</text><rect fill="#FFFFFF" height="86.3984" style="stroke:#4F8FFF;stroke-width:1.0;" width="10" x="719.5" y="171.6953"/><polygon fill="#4F8FFF" points="267.5,109.4297,277.5,113.4297,267.5,117.4297,271.5,113.4297" style="stroke:#4F8FFF;stroke-width:1.0;"/><line style="stroke:#4F8FFF;stroke-width:1.0;" x1="48.5" x2="273.5" y1="113.4297" y2="113.4297"/><text fill="#000000" font-family="Verdana" font-size="13" lengthAdjust="spacing" textLength="207" x="55.5" y="108.3638">push commit / open pull request</text><polygon fill="#4F8FFF" points="508.5,138.5625,518.5,142.5625,508.5,146.5625,512.5,142.5625" style="stroke:#4F8FFF;stroke-width:1.0;"/><line style="stroke:#4F8FFF;stroke-width:1.0;" x1="279.5" x2="514.5" y1="142.5625" y2="142.5625"/><text fill="#000000" font-family="Verdana" font-size="13" lengthAdjust="spacing" textLength="217" x="286.5" y="137.4966">trigger event (push / pull_request)</text><polygon fill="#4F8FFF" points="707.5,167.6953,717.5,171.6953,707.5,175.6953,711.5,171.6953" style="stroke:#4F8FFF;stroke-width:1.0;"/><line style="stroke:#4F8FFF;stroke-width:1.0;" x1="520.5" x2="713.5" y1="171.6953" y2="171.6953"/><text fill="#000000" font-family="Verdana" font-size="13" lengthAdjust="spacing" textLength="97" x="527.5" y="166.6294">schedule job(s)</text><line style="stroke:#4F8FFF;stroke-width:1.0;" x1="729.5" x2="771.5" y1="215.9609" y2="215.9609"/><line style="stroke:#4F8FFF;stroke-width:1.0;" x1="771.5" x2="771.5" y1="215.9609" y2="228.9609"/><line style="stroke:#4F8FFF;stroke-width:1.0;" x1="730.5" x2="771.5" y1="228.9609" y2="228.9609"/><polygon fill="#4F8FFF" points="740.5,224.9609,730.5,228.9609,740.5,232.9609,736.5,228.9609" style="stroke:#4F8FFF;stroke-width:1.0;"/><text fill="#000000" font-family="Verdana" font-size="13" lengthAdjust="spacing" textLength="90" x="736.5" y="195.7622">execute steps</text><text fill="#000000" font-family="Verdana" font-size="13" lengthAdjust="spacing" textLength="159" x="736.5" y="210.895">(checkout, build, test, ...)</text><polygon fill="#4F8FFF" points="531.5,254.0938,521.5,258.0938,531.5,262.0938,527.5,258.0938" style="stroke:#4F8FFF;stroke-width:1.0;"/><line style="stroke:#4F8FFF;stroke-width:1.0;stroke-dasharray:2.0,2.0;" x1="525.5" x2="723.5" y1="258.0938" y2="258.0938"/><text fill="#000000" font-family="Verdana" font-size="13" lengthAdjust="spacing" textLength="175" x="537.5" y="253.0278">job result (success / failure)</text><polygon fill="#4F8FFF" points="895.5,283.2266,905.5,287.2266,895.5,291.2266,899.5,287.2266" style="stroke:#4F8FFF;stroke-width:1.0;"/><line style="stroke:#4F8FFF;stroke-width:1.0;stroke-dasharray:2.0,2.0;" x1="520.5" x2="901.5" y1="287.2266" y2="287.2266"/><text fill="#000000" font-family="Verdana" font-size="13" lengthAdjust="spacing" textLength="130" x="527.5" y="282.1606">update status check</text><polygon fill="#4F8FFF" points="59.5,312.3594,49.5,316.3594,59.5,320.3594,55.5,316.3594" style="stroke:#4F8FFF;stroke-width:1.0;"/><line style="stroke:#4F8FFF;stroke-width:1.0;stroke-dasharray:2.0,2.0;" x1="53.5" x2="906.5" y1="316.3594" y2="316.3594"/><text fill="#000000" font-family="Verdana" font-size="13" lengthAdjust="spacing" textLength="120" x="65.5" y="311.2935">shows check result</text><!--SRC=[TP0nJyCm48Nt_8gZBArKseK1CI0La61WG5rOa93ZN1eJnpRdSmF_dekR5ehAOCdsVU_UkplZ1Zk4O9LnHMoD2ufK1wNIxOPySjMTjvw0IRae9NJyYuhuaT1fN17vVWUUNzPNTLsVW9vCBSVXhQSAwJzQQVPq2Ybo1IRtk4Nh0z84L8GAjuK8sMWJb6EOF1X-J2MiCVXeHF2LCPBdIMwbsNWNNzsBfxQslizuFpwE9Ulat6XB-NfSVaxMYgyC6pb3WOf2yi75JVQ7QmWfDg1zrnc69SWGJhv4HJjLaJ71z_uYOJAR3HB8r68opHsMMVKsgcR50H-SSZ8HHjrWbIp2ko-dSJQipsmLupxx2FwMu2Vg94Ha3BAIgNJGhKyyXp8PMys1nMuEYyLYTf0VfnKl6IOcAr5ZqXfZbBIrCZOHpcGRVrFyH9T6OGYHGgLo1iKfGevGX9tHi4mPhF7zM1YzlW40]--></g></svg>